<svg version="1.2" xmlns="http://www.w3.org/2000/svg" viewBox="0 0 1080 1080" width="1080" height="1080">
	<style>
		.s0 { fill: #ffffff } 
		.s1 { fill: #edb65e } 
		.s2 { fill: #ec6666 } 
		.s3 { fill: #ecea65 } 
	</style>
	<g id="Layer 1">
		<path id="TORCH
" class="s0" aria-label="TORCH"  d="m306.9 471.2h31.8v93.8h33.4v-93.8h32.1v-26.6h-97.3zm255 33.1c0-36.2-27.3-61.6-61.6-61.6-34.2 0-61.8 25.4-61.8 61.6 0 36.2 27.6 61.9 61.8 61.9 34.1 0 61.6-25.7 61.6-61.9zm-89.3 0c0-18.9 10.3-30.9 27.7-30.9 17.2 0 27.7 12 27.7 30.9 0 18.6-10.5 30.8-27.7 30.8-17.4 0-27.7-12.2-27.7-30.8zm193.7-19.3c0 8.2-4.6 12.7-13.7 12.7h-16.6v-25.1h16.6c9.1 0 13.7 4.9 13.7 12.4zm-63.7-40.4v120.4h33.4v-44.4h3.6l23.9 44.4h37.4l-27.1-47c17.9-5.5 26.4-19.1 26.4-34.8 0-21.6-15-38.6-44.9-38.6zm133.9 59.9c0 36 23.8 61.3 60 61.3 30.2 0 51.7-17.4 57.7-44.7h-36c-4.3 9-12.3 14-22.2 14-15.4 0-25.5-12-25.5-30.6 0-18.4 10.1-30.4 25.5-30.4 9.9 0 17.9 5 22.2 14h36c-6-27.3-27.5-44.7-57.7-44.7-36.2 0-60 25.2-60 61.1zm233.4 60.5h33.5v-120.4h-33.5v45.2h-40.8v-45.2h-33.5v120.4h33.5v-48.4h40.8z"/>
		<path id="LEADERSHIP ACADEMY
" class="s0" aria-label="LEADERSHIP ACADEMY"  d="m310.2 598.8v44.2h19.2v-2.4h-16.4v-41.8zm52.3 0h-22.3v44.2h22.3v-2.4h-19.5v-18.6h17.6v-2.3h-17.6v-18.5h19.5zm41.9 44.2h3.1l-16.1-43.2h-3.2l-16.2 43.2h3.1l4.2-11.3h20.9zm-5.1-13.8h-19.2l9.7-25.7zm31.2-30.4h-12.4v44.1h12.4c15 0 23.3-8.1 23.3-22 0-13.8-8.3-22.1-23.3-22.1zm-9.6 41.7v-39.3h9.6c13.6 0 20.5 7.5 20.5 19.7 0 12.2-6.9 19.6-20.5 19.6zm67.5-41.7h-22.3v44.1h22.3v-2.4h-19.5v-18.5h17.6v-2.4h-17.6v-18.4h19.5zm36.6 12.6c0 5.9-3.5 10.3-11.7 10.3h-9.4v-20.4h9.3c8.5 0 11.8 3.9 11.8 10.1zm-23.9-12.6v44.1h2.8v-18.8h9.4 0.3l11.3 18.8h3.4l-11.6-19c7.5-1.1 11.2-5.9 11.2-12.5 0-7.3-4.5-12.6-14.7-12.6zm65.4 33c0-16.6-24.7-7.9-24.7-22.2 0-5.6 4.9-8.9 10.7-8.8 6.9 0 10.1 4.4 10.7 7.5h3c-0.9-5.1-5.4-10-13.7-10-8.2 0-13.5 5.1-13.5 11.4 0 16.8 24.6 7.9 24.6 22.1 0 5.1-4 9.1-10.7 9.1-8.3 0-11.1-5.2-11.6-8.9h-2.9c0.5 6.2 5.6 11.4 14.5 11.4 9.1 0 13.6-6 13.6-11.6zm41.2 11.1h2.9v-44.1h-2.9v20.3h-25.8v-20.3h-2.8v44.1h2.8v-21.4h25.8zm16.4 0h2.8v-44.1h-2.8zm19.8-21.9v-19.8h9.5c8.4 0 11.6 3.7 11.6 10 0 5.9-3.2 9.8-11.6 9.8zm23.9-9.8c0-7.3-4.3-12.5-14.5-12.5h-12.2v44.2h2.8v-19.4h9.4c9.8 0 14.5-4.7 14.5-12.3zm62.5 31.7h3.1l-16.2-43.2h-3.1l-16.3 43.2h3.1l4.2-11.4h21zm-5.1-13.7h-19.2l9.6-25.7zm17.1-8.3c0 13.1 9 22.4 21.1 22.4 10.2 0 17.1-5.1 20.3-13.4h-3.3c-2.5 6.5-8.2 10.9-17 10.9-10.1 0-18.2-7.6-18.2-19.9 0-12.5 8.1-20.1 18.2-20.1 8.8 0 14.5 4.5 17 10.9h3.3c-3.2-8.2-10.1-13.4-20.3-13.4-12.1 0-21.1 9.3-21.1 22.6zm84 22h3.1l-16.2-43.2h-3.1l-16.2 43.2h3.1l4.2-11.3h20.9zm-5.1-13.7h-19.2l9.7-25.8zm31.2-30.4h-12.4v44.1h12.4c15 0 23.3-8.1 23.3-22 0-13.8-8.3-22.1-23.3-22.1zm-9.6 41.8v-39.4h9.6c13.6 0 20.4 7.5 20.4 19.7 0 12.2-6.8 19.7-20.4 19.7zm67.5-41.8h-22.3v44.1h22.3v-2.3h-19.5v-18.6h17.6v-2.4h-17.6v-18.4h19.5zm12.7 44.1h2.8v-37.3l16.7 37.3h2.2l16.6-37.3v37.3h2.9v-43.2h-3l-17.6 39.5-17.6-39.5h-3zm65.5-17.9v17.9h2.8v-17.9l13.9-26.3h-3.2l-12.1 23.7-12.3-23.7h-3.2z"/>
		<path id="&lt;Path&gt;" class="s1" d="m116.24 423.24c0 0 1.95 34.28-42.27 97.72-43.01 61.7 20 99.41 23.5 101.44q0.15 0.09 0.3 0.16l72.79 36.21q0.41 0.21 0.86 0.35c2.45 0.75 4.3-0.11 5.62-2.04l-54.92-228.41c-0.7-2.32-2.5-4.28-4.97-5.43z"/>
		<path id="&lt;Path&gt;" class="s1" d="m231.4 424.26c0 0-1.95 34.28 42.28 97.72 43 61.69-20.01 99.4-23.51 101.43q-0.15 0.09-0.3 0.16l-72.79 36.21q-0.41 0.21-0.86 0.35c-2.45 0.75-4.3-0.11-5.62-2.04l54.93-228.41c0.69-2.32 2.49-4.28 4.96-5.43z"/>
		<path id="&lt;Path&gt;" class="s2" d="m232.22 469.21c0 0 60.27 54.55 5.54 135.05q-0.23 0.33-0.49 0.63l-58.63 53.28c-1.82 2.07-4.73 2.38-6.86 0.71q-0.4-0.3-0.74-0.69l-59.56-53.46q-0.13-0.14-0.24-0.29c-2.79-3.59-52.51-69.64 6.65-135.69 60.84-67.92 53.1-75.93 53.1-75.93z"/>
		<path id="&lt;Path&gt;" class="s3" d="m132.63 506.84c0 0-49.03 40.69-4.51 100.74q0.18 0.25 0.4 0.47l43.2 54.29c1.49 1.55 3.85 1.78 5.59 0.54q0.32-0.23 0.6-0.52l48.45-49.93c0.08-0.08 4.63-4.63 4.7-4.71 2.26-2.68 42.72-51.95-5.42-101.22-49.5-50.66-46.85-85.9-46.85-85.9l-50.66 90.74"/>
		<path id="&lt;Path&gt;" class="s1" d="m109.98 598.2l60.52 59.67q0.99-0.44 1.71-1.51l-43.06-190.26c-0.54-1.84-1.94-3.39-3.87-4.3h-0.7c0 0 1.5 36.58-32.61 86.68-1.29 1.9-2.42 3.76-3.47 5.6 4.79 24.77 19.73 42.15 21.23 43.86q0.12 0.13 0.25 0.26z"/>
		<path id="&lt;Path&gt;" class="s3" d="m113.18 594.19q-0.13-0.13-0.24-0.27c-1.43-1.82-15.64-20.35-20.19-46.74-24.65 48.38 18.39 77.94 20.87 79.59q0.11 0.07 0.23 0.14l53.73 30.67q0.31 0.18 0.64 0.3c0.97 0.34 1.8 0.27 2.52-0.1z"/>
		<path id="&lt;Path&gt;" class="s1" d="m237.66 599.21l-60.52 59.68q-0.99-0.45-1.71-1.52l43.06-190.26c0.55-1.84 1.94-3.39 3.87-4.3h0.7c0 0-1.5 36.58 32.61 86.68 1.29 1.9 2.42 3.76 3.47 5.6-4.79 24.77-19.73 42.16-21.23 43.86q-0.12 0.13-0.25 0.26z"/>
		<path id="&lt;Path&gt;" class="s3" d="m234.47 595.21q0.12-0.14 0.23-0.28c1.44-1.82 15.64-20.34 20.19-46.74 24.65 48.38-18.39 77.94-20.87 79.59q-0.11 0.07-0.23 0.14l-53.73 30.67q-0.31 0.18-0.64 0.3c-0.97 0.34-1.8 0.27-2.52-0.09z"/>
	</g>
</svg>